<svg width="34" height="34" viewBox="0 0 34 34" fill="none" xmlns="http://www.w3.org/2000/svg">
<path d="M16.9997 33.6663C7.79492 33.6663 0.333008 26.2043 0.333008 16.9997C0.333008 7.79492 7.79492 0.333008 16.9997 0.333008C26.2043 0.333008 33.6663 7.79492 33.6663 16.9997C33.6663 26.2043 26.2043 33.6663 16.9997 33.6663ZM16.9997 30.333C24.3635 30.333 30.333 24.3635 30.333 16.9997C30.333 9.63587 24.3635 3.66634 16.9997 3.66634C9.63587 3.66634 3.66634 9.63587 3.66634 16.9997C3.66634 24.3635 9.63587 30.333 16.9997 30.333ZM15.3373 23.6663L8.26632 16.5953L10.6234 14.2382L15.3373 18.9523L24.7655 9.52421L27.1225 11.8812L15.3373 23.6663Z" fill="#D57A66"/>
</svg>
