<svg width="41" height="40" viewBox="0 0 41 40" fill="none" xmlns="http://www.w3.org/2000/svg">
<path d="M27 26.6663C29.7615 26.6663 32 28.9048 32 31.6663C32 34.4278 29.7615 36.6663 27 36.6663C24.2385 36.6663 22 34.4278 22 31.6663C22 28.9048 24.2385 26.6663 27 26.6663ZM10.3334 19.9997C14.0153 19.9997 17 22.9845 17 26.6663C17 30.3482 14.0153 33.333 10.3334 33.333C6.65145 33.333 3.66669 30.3482 3.66669 26.6663C3.66669 22.9845 6.65145 19.9997 10.3334 19.9997ZM27 29.9997C26.0795 29.9997 25.3334 30.7458 25.3334 31.6663C25.3334 32.5868 26.0795 33.333 27 33.333C27.9205 33.333 28.6667 32.5868 28.6667 31.6663C28.6667 30.7458 27.9205 29.9997 27 29.9997ZM10.3334 23.333C8.4924 23.333 7.00002 24.8253 7.00002 26.6663C7.00002 28.5073 8.4924 29.9997 10.3334 29.9997C12.1743 29.9997 13.6667 28.5073 13.6667 26.6663C13.6667 24.8253 12.1743 23.333 10.3334 23.333ZM24.5 3.33301C29.5627 3.33301 33.6667 7.43706 33.6667 12.4997C33.6667 17.5623 29.5627 21.6663 24.5 21.6663C19.4374 21.6663 15.3334 17.5623 15.3334 12.4997C15.3334 7.43706 19.4374 3.33301 24.5 3.33301ZM24.5 6.66634C21.2784 6.66634 18.6667 9.27801 18.6667 12.4997C18.6667 15.7213 21.2784 18.333 24.5 18.333C27.7217 18.333 30.3334 15.7213 30.3334 12.4997C30.3334 9.27801 27.7217 6.66634 24.5 6.66634Z" fill="#D57A66"/>
</svg>
