<svg width="37" height="32" viewBox="0 0 37 32" fill="none" xmlns="http://www.w3.org/2000/svg">
<path d="M18.3333 0.333008C24.7767 0.333008 30 5.55636 30 11.9997C30 12.1889 29.9955 12.377 29.9867 12.564C33.8775 13.933 36.6667 17.6407 36.6667 21.9997C36.6667 27.5225 32.1895 31.9997 26.6667 31.9997H10C4.47715 31.9997 0 27.5225 0 21.9997C0 17.6407 2.7891 13.933 6.68007 12.564C6.67117 12.377 6.66667 12.1889 6.66667 11.9997C6.66667 5.55636 11.89 0.333008 18.3333 0.333008ZM18.3333 3.66634C13.731 3.66634 10 7.39731 10 11.9997C10 12.1355 10.0032 12.2707 10.0096 12.4054L10.1277 14.8845L7.78638 15.7083C5.14067 16.6392 3.33333 19.1478 3.33333 21.9997C3.33333 25.6815 6.3181 28.6663 10 28.6663H26.6667C30.3485 28.6663 33.3333 25.6815 33.3333 21.9997C33.3333 18.3163 30.35 15.333 26.6667 15.333C23.7217 15.333 21.2228 17.2425 20.3403 19.8908L17.1773 18.8365C18.5008 14.8638 22.25 11.9997 26.6667 11.9997C26.6667 7.39731 22.9357 3.66634 18.3333 3.66634Z" fill="#D57A66"/>
</svg>
