<svg width="34" height="34" viewBox="0 0 34 34" fill="none" xmlns="http://www.w3.org/2000/svg">
<path d="M9.15162 31.7067L0.333008 33.6663L2.29269 24.8477C1.04207 22.509 0.333008 19.8372 0.333008 16.9997C0.333008 7.79492 7.79492 0.333008 16.9997 0.333008C26.2043 0.333008 33.6663 7.79492 33.6663 16.9997C33.6663 26.2043 26.2043 33.6663 16.9997 33.6663C14.1622 33.6663 11.4903 32.9573 9.15162 31.7067ZM9.63426 28.1847L10.7235 28.7672C12.6371 29.7905 14.7755 30.333 16.9997 30.333C24.3635 30.333 30.333 24.3635 30.333 16.9997C30.333 9.63587 24.3635 3.66634 16.9997 3.66634C9.63587 3.66634 3.66634 9.63587 3.66634 16.9997C3.66634 19.2238 4.20882 21.3622 5.23216 23.2758L5.81461 24.365L4.72327 29.276L9.63426 28.1847Z" fill="#D57A66"/>
</svg>
