<svg width="34" height="34" viewBox="0 0 34 34" fill="none" xmlns="http://www.w3.org/2000/svg">
<path d="M17 33.6663C7.79524 33.6663 0.333328 26.2043 0.333328 16.9997C0.333328 7.79492 7.79524 0.333008 17 0.333008C26.2047 0.333008 33.6667 7.79492 33.6667 16.9997C33.6667 26.2043 26.2047 33.6663 17 33.6663ZM17 30.333C24.3638 30.333 30.3333 24.3635 30.3333 16.9997C30.3333 9.63587 24.3638 3.66634 17 3.66634C9.63619 3.66634 3.66666 9.63587 3.66666 16.9997C3.66666 24.3635 9.63619 30.333 17 30.333ZM22.8333 11.1663L19.5 19.4997L11.1667 22.833L14.5 14.4997L22.8333 11.1663Z" fill="#D57A66"/>
</svg>
