<svg width="34" height="34" viewBox="0 0 34 34" fill="none" xmlns="http://www.w3.org/2000/svg">
<path d="M11.9997 1.09601V4.63554C7.11329 6.61349 3.66634 11.404 3.66634 16.9997C3.66634 24.3635 9.63587 30.333 16.9997 30.333C22.5953 30.333 27.3858 26.886 29.3638 21.9997H32.9033C30.7795 28.7615 24.4623 33.6663 16.9997 33.6663C7.79492 33.6663 0.333008 26.2043 0.333008 16.9997C0.333008 9.53694 5.23782 3.21979 11.9997 1.09601ZM16.9997 0.333008C26.2043 0.333008 33.6663 7.79492 33.6663 16.9997C33.6663 17.5622 33.6385 18.1182 33.584 18.6663H15.333V0.415308C15.8812 0.360875 16.4372 0.333008 16.9997 0.333008ZM18.6663 3.76949V15.333H30.2298C29.4778 9.30181 24.6975 4.52157 18.6663 3.76949Z" fill="#D57A66"/>
</svg>
