<svg width="18" height="18" viewBox="0 0 18 18" fill="none" xmlns="http://www.w3.org/2000/svg">
<path d="M4.10508 5.78991C4.45179 7.0635 5.61653 8 7 8H11C13.4703 8 15.5222 9.7915 15.9274 12.1461C17.1303 12.5367 18 13.6668 18 15C18 16.6569 16.6569 18 15 18C13.3431 18 12 16.6569 12 15C12 13.7334 12.7849 12.6501 13.8949 12.2101C13.5482 10.9365 12.3835 10 11 10H7C5.87439 10 4.83566 9.6281 4 9.0004V12.1707C5.16519 12.5825 6 13.6938 6 15C6 16.6569 4.65685 18 3 18C1.34315 18 0 16.6569 0 15C0 13.6938 0.83481 12.5825 2 12.1707V5.82929C0.83481 5.41746 0 4.30622 0 3C0 1.34315 1.34315 0 3 0C4.65685 0 6 1.34315 6 3C6 4.26661 5.21506 5.34988 4.10508 5.78991ZM3 4C3.55228 4 4 3.55228 4 3C4 2.44772 3.55228 2 3 2C2.44772 2 2 2.44772 2 3C2 3.55228 2.44772 4 3 4ZM3 16C3.55228 16 4 15.5523 4 15C4 14.4477 3.55228 14 3 14C2.44772 14 2 14.4477 2 15C2 15.5523 2.44772 16 3 16ZM15 16C15.5523 16 16 15.5523 16 15C16 14.4477 15.5523 14 15 14C14.4477 14 14 14.4477 14 15C14 15.5523 14.4477 16 15 16Z" fill="#F7EDE2"/>
</svg>
