<svg width="27" height="36" viewBox="0 0 27 36" fill="none" xmlns="http://www.w3.org/2000/svg">
<path d="M10.2884 26.9997H11.9999V18.6663H15.3333V26.9997H17.0448C17.2648 24.997 18.2868 23.3438 19.9459 21.5373C20.1328 21.334 21.3312 20.0937 21.4734 19.9165C22.8862 18.1548 23.6666 15.9747 23.6666 13.6663C23.6666 8.14349 19.1894 3.66634 13.6666 3.66634C8.14373 3.66634 3.66659 8.14349 3.66659 13.6663C3.66659 15.9735 4.44615 18.1525 5.85762 19.9137C5.99999 20.0913 7.20127 21.335 7.38582 21.536C9.04602 23.3437 10.0683 24.997 10.2884 26.9997ZM10.3333 30.333V31.9997H16.9999V30.333H10.3333ZM3.2565 21.9983C1.42734 19.7158 0.333252 16.8188 0.333252 13.6663C0.333252 6.30254 6.30278 0.333008 13.6666 0.333008C21.0304 0.333008 26.9999 6.30254 26.9999 13.6663C26.9999 16.8205 25.9046 19.7188 24.0738 22.002C23.0399 23.291 20.3333 25.333 20.3333 27.833V31.9997C20.3333 33.8407 18.8409 35.333 16.9999 35.333H10.3333C8.4923 35.333 6.99992 33.8407 6.99992 31.9997V27.833C6.99992 25.333 4.29089 23.289 3.2565 21.9983Z" fill="#D57A66"/>
</svg>
