<svg width="28" height="37" viewBox="0 0 28 37" fill="none" xmlns="http://www.w3.org/2000/svg">
<path d="M22.3334 24.4093V35.8618C22.3334 36.322 21.9602 36.6953 21.5001 36.6953C21.3491 36.6953 21.2009 36.6542 21.0714 36.5765L14.0001 32.3337L6.92883 36.5765C6.53418 36.8132 6.0223 36.6852 5.7855 36.2907C5.7078 36.161 5.66675 36.0128 5.66675 35.8618V24.4093C2.61853 21.9658 0.666748 18.211 0.666748 14.0003C0.666748 6.63653 6.63628 0.666992 14.0001 0.666992C21.3639 0.666992 27.3334 6.63653 27.3334 14.0003C27.3334 18.211 25.3816 21.9658 22.3334 24.4093ZM9.00008 26.3645V31.4463L14.0001 28.4463L19.0001 31.4463V26.3645C17.4561 26.9895 15.7682 27.3337 14.0001 27.3337C12.2319 27.3337 10.5441 26.9895 9.00008 26.3645ZM14.0001 24.0003C19.5229 24.0003 24.0001 19.5232 24.0001 14.0003C24.0001 8.47748 19.5229 4.00033 14.0001 4.00033C8.47723 4.00033 4.00008 8.47748 4.00008 14.0003C4.00008 19.5232 8.47723 24.0003 14.0001 24.0003Z" fill="#D57A66"/>
</svg>
