<svg width="18" height="22" viewBox="0 0 18 22" fill="none" xmlns="http://www.w3.org/2000/svg">
<path d="M0.78307 1.82598L9 0L17.2169 1.82598C17.6745 1.92766 18 2.33347 18 2.80217V12.7889C18 14.795 16.9974 16.6684 15.3282 17.7812L9 22L2.6718 17.7812C1.00261 16.6684 0 14.795 0 12.7889V2.80217C0 2.33347 0.32553 1.92766 0.78307 1.82598ZM2 3.60434V12.7889C2 14.1263 2.6684 15.3752 3.7812 16.1171L9 19.5963L14.2188 16.1171C15.3316 15.3752 16 14.1263 16 12.7889V3.60434L9 2.04879L2 3.60434ZM9 10C7.6193 10 6.5 8.88071 6.5 7.5C6.5 6.11929 7.6193 5 9 5C10.3807 5 11.5 6.11929 11.5 7.5C11.5 8.88071 10.3807 10 9 10ZM4.52746 15C4.77619 12.75 6.68372 11 9 11C11.3163 11 13.2238 12.75 13.4725 15H4.52746Z" fill="#F7EDE2"/>
</svg>
