<svg width="22" height="29" viewBox="0 0 22 29" fill="none" xmlns="http://www.w3.org/2000/svg">
<path d="M8.29711 22.0003H9.66634V15.3337H12.333V22.0003H13.7022C13.8782 20.3982 14.6958 19.0757 16.0231 17.6305C16.1726 17.4678 17.1314 16.4755 17.2451 16.3338C18.3754 14.9245 18.9997 13.1803 18.9997 11.3337C18.9997 6.91538 15.4179 3.33366 10.9997 3.33366C6.58139 3.33366 2.99967 6.91538 2.99967 11.3337C2.99967 13.1794 3.62333 14.9226 4.7525 16.3315C4.86639 16.4737 5.82742 17.4686 5.97506 17.6294C7.30322 19.0755 8.12105 20.3982 8.29711 22.0003ZM8.33301 24.667V26.0003H13.6663V24.667H8.33301ZM2.67161 17.9993C1.20827 16.1733 0.333008 13.8557 0.333008 11.3337C0.333008 5.44262 5.10863 0.666992 10.9997 0.666992C16.8907 0.666992 21.6663 5.44262 21.6663 11.3337C21.6663 13.857 20.7901 16.1757 19.3254 18.0022C18.4983 19.0334 16.333 20.667 16.333 22.667V26.0003C16.333 27.4731 15.1391 28.667 13.6663 28.667H8.33301C6.86025 28.667 5.66634 27.4731 5.66634 26.0003V22.667C5.66634 20.667 3.49911 19.0318 2.67161 17.9993Z" fill="#D57A66"/>
</svg>
