<svg width="41" height="40" viewBox="0 0 41 40" fill="none" xmlns="http://www.w3.org/2000/svg">
<path d="M20.6667 3.33301C29.8703 3.33301 37.3333 9.96264 37.3333 18.1478C37.3333 23.259 33.1852 27.407 28.074 27.407H24.7963C23.2593 27.407 22.0185 28.6478 22.0185 30.1848C22.0185 30.8885 22.2963 31.5367 22.7222 32.0182C23.1667 32.5182 23.4445 33.1663 23.4445 33.8885C23.4445 35.4257 22.1667 36.6663 20.6667 36.6663C11.463 36.6663 4 29.2033 4 19.9997C4 10.796 11.463 3.33301 20.6667 3.33301ZM18.6852 30.1848C18.6852 26.8068 21.4183 24.0737 24.7963 24.0737H28.074C31.3442 24.0737 34 21.418 34 18.1478C34 11.8983 28.1128 6.66634 20.6667 6.66634C13.3039 6.66634 7.33333 12.6369 7.33333 19.9997C7.33333 26.983 12.7043 32.7138 19.54 33.286C18.9913 32.361 18.6852 31.2932 18.6852 30.1848ZM13.1667 19.9997C11.7859 19.9997 10.6667 18.8803 10.6667 17.4997C10.6667 16.119 11.7859 14.9997 13.1667 14.9997C14.5474 14.9997 15.6667 16.119 15.6667 17.4997C15.6667 18.8803 14.5474 19.9997 13.1667 19.9997ZM28.1667 19.9997C26.786 19.9997 25.6667 18.8803 25.6667 17.4997C25.6667 16.119 26.786 14.9997 28.1667 14.9997C29.5473 14.9997 30.6667 16.119 30.6667 17.4997C30.6667 18.8803 29.5473 19.9997 28.1667 19.9997ZM20.6667 14.9997C19.286 14.9997 18.1667 13.8804 18.1667 12.4997C18.1667 11.119 19.286 9.99967 20.6667 9.99967C22.0473 9.99967 23.1667 11.119 23.1667 12.4997C23.1667 13.8804 22.0473 14.9997 20.6667 14.9997Z" fill="#D57A66"/>
</svg>
