<svg width="34" height="34" viewBox="0 0 34 34" fill="none" xmlns="http://www.w3.org/2000/svg">
<path d="M17.3332 15.333C21.9355 15.333 25.6665 19.064 25.6665 23.6663V33.6663H22.3332V23.6663C22.3332 21.0035 20.2517 18.8268 17.627 18.6748L17.3332 18.6663C14.6703 18.6663 12.4937 20.7478 12.3417 23.3725L12.3332 23.6663V33.6663H8.99984V23.6663C8.99984 19.064 12.7308 15.333 17.3332 15.333ZM6.49984 20.333C6.96459 20.333 7.41665 20.3873 7.85 20.49C7.56987 21.323 7.39772 22.203 7.3481 23.1152L7.33317 23.6663L7.33434 23.809C7.14579 23.7423 6.94685 23.6975 6.7406 23.6778L6.49984 23.6663C5.20034 23.6663 4.13242 24.6578 4.01129 25.9255L3.99984 26.1663V33.6663H0.666504V26.1663C0.666504 22.9447 3.27817 20.333 6.49984 20.333ZM28.1665 20.333C31.3882 20.333 33.9998 22.9447 33.9998 26.1663V33.6663H30.6665V26.1663C30.6665 24.8668 29.675 23.799 28.4073 23.6778L28.1665 23.6663C27.8745 23.6663 27.5942 23.7163 27.3337 23.8083L27.3332 23.6663C27.3332 22.5568 27.1525 21.4897 26.819 20.4923C27.2497 20.3873 27.7017 20.333 28.1665 20.333ZM6.49984 10.333C8.80102 10.333 10.6665 12.1985 10.6665 14.4997C10.6665 16.8008 8.80102 18.6663 6.49984 18.6663C4.19865 18.6663 2.33317 16.8008 2.33317 14.4997C2.33317 12.1985 4.19865 10.333 6.49984 10.333ZM28.1665 10.333C30.4677 10.333 32.3332 12.1985 32.3332 14.4997C32.3332 16.8008 30.4677 18.6663 28.1665 18.6663C25.8653 18.6663 23.9998 16.8008 23.9998 14.4997C23.9998 12.1985 25.8653 10.333 28.1665 10.333ZM6.49984 13.6663C6.0396 13.6663 5.6665 14.0395 5.6665 14.4997C5.6665 14.9598 6.0396 15.333 6.49984 15.333C6.96007 15.333 7.33317 14.9598 7.33317 14.4997C7.33317 14.0395 6.96007 13.6663 6.49984 13.6663ZM28.1665 13.6663C27.7063 13.6663 27.3332 14.0395 27.3332 14.4997C27.3332 14.9598 27.7063 15.333 28.1665 15.333C28.6267 15.333 28.9998 14.9598 28.9998 14.4997C28.9998 14.0395 28.6267 13.6663 28.1665 13.6663ZM17.3332 0.333008C21.015 0.333008 23.9998 3.31777 23.9998 6.99967C23.9998 10.6816 21.015 13.6663 17.3332 13.6663C13.6513 13.6663 10.6665 10.6816 10.6665 6.99967C10.6665 3.31777 13.6513 0.333008 17.3332 0.333008ZM17.3332 3.66634C15.4922 3.66634 13.9998 5.15872 13.9998 6.99967C13.9998 8.84062 15.4922 10.333 17.3332 10.333C19.1742 10.333 20.6665 8.84062 20.6665 6.99967C20.6665 5.15872 19.1742 3.66634 17.3332 3.66634Z" fill="#D57A66"/>
</svg>
