<svg width="24" height="28" viewBox="0 0 24 28" fill="none" xmlns="http://www.w3.org/2000/svg">
<path d="M16 3.33366H2.66667V24.667H21.3333V8.66699H16V3.33366ZM0 1.98939C0 1.25906 0.596653 0.666992 1.33133 0.666992H17.3333L23.9996 7.33366L24 25.9903C24 26.7322 23.4068 27.3337 22.6755 27.3337H1.32453C0.593013 27.3337 0 26.7266 0 26.0113V1.98939ZM19.5425 14.0003L14.8284 18.7143L12.9428 16.8287L15.7712 14.0003L12.9428 11.1719L14.8284 9.28628L19.5425 14.0003ZM4.45753 14.0003L9.17157 9.28628L11.0572 11.1719L8.22876 14.0003L11.0572 16.8287L9.17157 18.7143L4.45753 14.0003Z" fill="#D57A66"/>
</svg>
