<svg width="36" height="30" viewBox="0 0 36 30" fill="none" xmlns="http://www.w3.org/2000/svg">
<path d="M30 12.643L33.0473 9.5956L35.4043 11.9527L28.3333 19.0237L21.2623 11.9527L23.6193 9.5956L26.6667 12.643V8.33333C26.6667 5.57192 24.4282 3.33333 21.6667 3.33333H15V0H21.6667C26.269 0 30 3.73097 30 8.33333V12.643ZM18.3333 10C19.2538 10 20 10.7462 20 11.6667V28.3333C20 29.2538 19.2538 30 18.3333 30H1.66667C0.7462 30 0 29.2538 0 28.3333V11.6667C0 10.7462 0.7462 10 1.66667 10H18.3333ZM16.6667 13.3333H3.33333V26.6667H16.6667V13.3333Z" fill="#D57A66"/>
</svg>
