<svg width="25" height="29" viewBox="0 0 25 29" fill="none" xmlns="http://www.w3.org/2000/svg">
<path d="M10.9997 17.6663V20.333C6.58139 20.333 2.99967 23.9147 2.99967 28.333H0.333008C0.333008 22.4419 5.10863 17.6663 10.9997 17.6663ZM10.9997 16.333C6.57967 16.333 2.99967 12.753 2.99967 8.33301C2.99967 3.91301 6.57967 0.333008 10.9997 0.333008C15.4197 0.333008 18.9997 3.91301 18.9997 8.33301C18.9997 12.753 15.4197 16.333 10.9997 16.333ZM10.9997 13.6663C13.9463 13.6663 16.333 11.2797 16.333 8.33301C16.333 5.38634 13.9463 2.99967 10.9997 2.99967C8.05301 2.99967 5.66634 5.38634 5.66634 8.33301C5.66634 11.2797 8.05301 13.6663 10.9997 13.6663ZM14.4591 24.0817C14.3766 23.7345 14.333 23.3722 14.333 22.9997C14.333 22.6273 14.3766 22.265 14.459 21.9178L13.1369 21.1545L14.4702 18.845L15.7933 19.6089C16.3174 19.1131 16.9565 18.7375 17.6663 18.5262V16.9997H20.333V18.5262C21.0429 18.7375 21.6818 19.1131 22.2059 19.6089L23.5291 18.8449L24.8626 21.1543L23.5403 21.9177C23.6227 22.265 23.6663 22.6273 23.6663 22.9997C23.6663 23.3721 23.6227 23.7343 23.5403 24.0815L24.8626 24.8449L23.5293 27.1543L22.2061 26.3903C21.6819 26.8862 21.043 27.2618 20.3331 27.473V28.9997H17.6665V27.4731C16.9566 27.2619 16.3175 26.8863 15.7934 26.3905L14.4703 27.1545L13.1369 24.845L14.4591 24.0817ZM18.9997 24.9997C20.1042 24.9997 20.9997 24.1042 20.9997 22.9997C20.9997 21.8951 20.1042 20.9997 18.9997 20.9997C17.8951 20.9997 16.9997 21.8951 16.9997 22.9997C16.9997 24.1042 17.8951 24.9997 18.9997 24.9997Z" fill="#D57A66"/>
</svg>
