<svg width="32" height="34" viewBox="0 0 32 34" fill="none" xmlns="http://www.w3.org/2000/svg">
<path d="M26.9997 10.333H30.333C31.2535 10.333 31.9997 11.0792 31.9997 11.9997V31.9997C31.9997 32.9202 31.2535 33.6663 30.333 33.6663H16.9997C16.0792 33.6663 15.333 32.9202 15.333 31.9997V30.333H1.99967C1.07921 30.333 0.333008 29.5868 0.333008 28.6663V1.99967C0.333008 1.07921 1.07921 0.333008 1.99967 0.333008H25.333C26.2535 0.333008 26.9997 1.07921 26.9997 1.99967V10.333ZM23.6663 10.333V3.66634H3.66634V26.9997H15.333V11.9997C15.333 11.0792 16.0792 10.333 16.9997 10.333H23.6663ZM18.6663 13.6663V30.333H28.6663V13.6663H18.6663Z" fill="#D57A66"/>
</svg>
