<svg width="34" height="34" viewBox="0 0 34 34" fill="none" xmlns="http://www.w3.org/2000/svg">
<path d="M4.99976 10.333C2.23834 10.333 -0.000244141 8.09442 -0.000244141 5.33301C-0.000244141 2.57159 2.23834 0.333008 4.99976 0.333008C7.76117 0.333008 9.99976 2.57159 9.99976 5.33301C9.99976 8.09442 7.76117 10.333 4.99976 10.333ZM28.3331 10.333C25.5716 10.333 23.3331 8.09442 23.3331 5.33301C23.3331 2.57159 25.5716 0.333008 28.3331 0.333008C31.0946 0.333008 33.3331 2.57159 33.3331 5.33301C33.3331 8.09442 31.0946 10.333 28.3331 10.333ZM28.3331 33.6663C25.5716 33.6663 23.3331 31.4278 23.3331 28.6663C23.3331 25.9048 25.5716 23.6663 28.3331 23.6663C31.0946 23.6663 33.3331 25.9048 33.3331 28.6663C33.3331 31.4278 31.0946 33.6663 28.3331 33.6663ZM4.99976 33.6663C2.23834 33.6663 -0.000244141 31.4278 -0.000244141 28.6663C-0.000244141 25.9048 2.23834 23.6663 4.99976 23.6663C7.76117 23.6663 9.99976 25.9048 9.99976 28.6663C9.99976 31.4278 7.76117 33.6663 4.99976 33.6663ZM11.6664 3.66634H21.6664V6.99967H11.6664V3.66634ZM11.6664 26.9997H21.6664V30.333H11.6664V26.9997ZM3.33309 11.9997H6.66642V21.9997H3.33309V11.9997ZM26.6664 11.9997H29.9998V21.9997H26.6664V11.9997Z" fill="#D57A66"/>
</svg>
