<svg width="32" height="36" viewBox="0 0 32 36" fill="none" xmlns="http://www.w3.org/2000/svg">
<path d="M29.4723 24.333L31.4758 25.5351C31.8705 25.772 31.9983 26.2838 31.7616 26.6785C31.6911 26.7958 31.5931 26.894 31.4758 26.9643L16.8575 35.7351C16.3298 36.052 15.6703 36.052 15.1426 35.7351L0.52434 26.9643C0.12969 26.7275 0.00172372 26.2156 0.238507 25.821C0.30889 25.7036 0.40704 25.6055 0.52434 25.5351L2.52782 24.333L16.0001 32.4163L29.4723 24.333ZM29.4723 16.4996L31.4758 17.7018C31.8705 17.9386 31.9983 18.4505 31.7616 18.8451C31.6911 18.9625 31.5931 19.0606 31.4758 19.131L16.0001 28.4163L0.52434 19.131C0.12969 18.8941 0.00172372 18.3823 0.238507 17.9876C0.30889 17.8703 0.40704 17.7721 0.52434 17.7018L2.52782 16.4996L16.0001 24.583L29.4723 16.4996ZM16.8575 1.18086L31.4758 9.95179C31.8705 10.1886 31.9983 10.7005 31.7616 11.0951C31.6911 11.2124 31.5931 11.3106 31.4758 11.3809L16.0001 20.6663L0.52434 11.3809C0.12969 11.1442 0.00172372 10.6323 0.238507 10.2376C0.30889 10.1203 0.40704 10.0222 0.52434 9.95179L15.1426 1.18086C15.6703 0.864193 16.3298 0.864193 16.8575 1.18086ZM16.0001 4.55368L5.81221 10.6664L16.0001 16.7791L26.188 10.6664L16.0001 4.55368Z" fill="#D57A66"/>
</svg>
