<svg width="28" height="28" viewBox="0 0 28 28" fill="none" xmlns="http://www.w3.org/2000/svg">
<path d="M14.0003 12.666C17.6822 12.666 20.667 15.6508 20.667 19.3327V27.3327H18.0003V19.3327C18.0003 17.2024 16.3351 15.4611 14.2354 15.3395L14.0003 15.3327C11.8701 15.3327 10.1288 16.9979 10.0071 19.0976L10.0003 19.3327V27.3327H7.33366V19.3327C7.33366 15.6508 10.3184 12.666 14.0003 12.666ZM5.33366 16.666C5.70546 16.666 6.06711 16.7095 6.41379 16.7916C6.18969 17.458 6.05196 18.162 6.01227 18.8917L6.00033 19.3327L6.00126 19.4468C5.85042 19.3935 5.69127 19.3576 5.52627 19.3419L5.33366 19.3327C4.29406 19.3327 3.43973 20.1259 3.34282 21.14L3.33366 21.3327V27.3327H0.666992V21.3327C0.666992 18.7553 2.75633 16.666 5.33366 16.666ZM22.667 16.666C25.2443 16.666 27.3337 18.7553 27.3337 21.3327V27.3327H24.667V21.3327C24.667 20.2931 23.8738 19.4388 22.8597 19.3419L22.667 19.3327C22.4334 19.3327 22.2091 19.3727 22.0007 19.4463L22.0003 19.3327C22.0003 18.4451 21.8558 17.5913 21.589 16.7935C21.9335 16.7095 22.2951 16.666 22.667 16.666ZM5.33366 8.66602C7.17461 8.66602 8.66699 10.1584 8.66699 11.9993C8.66699 13.8403 7.17461 15.3327 5.33366 15.3327C3.49271 15.3327 2.00033 13.8403 2.00033 11.9993C2.00033 10.1584 3.49271 8.66602 5.33366 8.66602ZM22.667 8.66602C24.5079 8.66602 26.0003 10.1584 26.0003 11.9993C26.0003 13.8403 24.5079 15.3327 22.667 15.3327C20.8261 15.3327 19.3337 13.8403 19.3337 11.9993C19.3337 10.1584 20.8261 8.66602 22.667 8.66602ZM5.33366 11.3327C4.96547 11.3327 4.66699 11.6312 4.66699 11.9993C4.66699 12.3675 4.96547 12.666 5.33366 12.666C5.70185 12.666 6.00033 12.3675 6.00033 11.9993C6.00033 11.6312 5.70185 11.3327 5.33366 11.3327ZM22.667 11.3327C22.2989 11.3327 22.0003 11.6312 22.0003 11.9993C22.0003 12.3675 22.2989 12.666 22.667 12.666C23.0351 12.666 23.3337 12.3675 23.3337 11.9993C23.3337 11.6312 23.0351 11.3327 22.667 11.3327ZM14.0003 0.666016C16.9458 0.666016 19.3337 3.05383 19.3337 5.99935C19.3337 8.94487 16.9458 11.3327 14.0003 11.3327C11.0548 11.3327 8.66699 8.94487 8.66699 5.99935C8.66699 3.05383 11.0548 0.666016 14.0003 0.666016ZM14.0003 3.33268C12.5275 3.33268 11.3337 4.52659 11.3337 5.99935C11.3337 7.47211 12.5275 8.66602 14.0003 8.66602C15.4731 8.66602 16.667 7.47211 16.667 5.99935C16.667 4.52659 15.4731 3.33268 14.0003 3.33268Z" fill="#D57A66"/>
</svg>
