<svg width="34" height="34" viewBox="0 0 34 34" fill="none" xmlns="http://www.w3.org/2000/svg">
<path d="M12.9163 16.1663C10.8453 16.1663 9.16634 14.4873 9.16634 12.4163C9.16634 10.3453 10.8453 8.66634 12.9163 8.66634C14.9873 8.66634 16.6663 10.3453 16.6663 12.4163C16.6663 14.4873 14.9873 16.1663 12.9163 16.1663ZM13.6663 29.913V24.333C13.6663 23.519 13.9067 22.7708 14.3398 22.1037C13.8475 22.0352 13.3444 21.9997 12.833 21.9997C10.2197 21.9997 7.82249 22.925 5.95119 24.4658C7.74816 27.1198 10.4762 29.0918 13.6663 29.913ZM4.42111 21.433C6.77354 19.6943 9.68322 18.6663 12.833 18.6663C14.5722 18.6663 16.2382 18.9797 17.7775 19.5532C19.2408 18.981 20.987 18.6663 22.833 18.6663C25.5992 18.6663 28.1412 19.3728 29.843 20.5935C30.1623 19.4502 30.333 18.2448 30.333 16.9997C30.333 9.63587 24.3635 3.66634 16.9997 3.66634C9.63587 3.66634 3.66634 9.63587 3.66634 16.9997C3.66634 18.5538 3.93227 20.046 4.42111 21.433ZM28.4653 23.8095C27.81 22.9207 25.6177 21.9997 22.833 21.9997C19.4895 21.9997 16.9997 23.3275 16.9997 24.333V30.333C21.8755 30.333 26.1402 27.7157 28.4653 23.8095ZM16.9997 33.6663C7.79492 33.6663 0.333008 26.2043 0.333008 16.9997C0.333008 7.79492 7.79492 0.333008 16.9997 0.333008C26.2043 0.333008 33.6663 7.79492 33.6663 16.9997C33.6663 26.2043 26.2043 33.6663 16.9997 33.6663ZM22.833 17.833C20.992 17.833 19.4997 16.3407 19.4997 14.4997C19.4997 12.6587 20.992 11.1663 22.833 11.1663C24.674 11.1663 26.1663 12.6587 26.1663 14.4997C26.1663 16.3407 24.674 17.833 22.833 17.833Z" fill="#D57A66"/>
</svg>
