<svg width="21" height="21" viewBox="0 0 21 21" fill="none" xmlns="http://www.w3.org/2000/svg">
<path d="M4 20.5004C2.067 20.5004 0.5 18.9334 0.5 17.0004C0.5 15.0674 2.067 13.5004 4 13.5004C5.5852 13.5004 6.92427 14.5543 7.35481 15.9996L13 15.9998V14.0004L15 13.9998V8.24381L12.757 5.9998H7V8.00045H1V2.00045H7V3.99981H12.757L16 0.757812L20.2426 5.00045L17 8.24181V13.9998L19 14.0004V20.0004H13V17.9998L7.35499 18.0007C6.92464 19.4463 5.58543 20.5004 4 20.5004ZM4 15.5004C3.17157 15.5004 2.5 16.172 2.5 17.0004C2.5 17.8289 3.17157 18.5004 4 18.5004C4.82843 18.5004 5.5 17.8289 5.5 17.0004C5.5 16.172 4.82843 15.5004 4 15.5004ZM17 16.0004H15V18.0004H17V16.0004ZM16 3.58623L14.5858 5.00045L16 6.41466L17.4142 5.00045L16 3.58623ZM5 4.00045H3V6.00045H5V4.00045Z" fill="#F7EDE2"/>
</svg>
