<svg width="20" height="20" viewBox="0 0 20 20" fill="none" xmlns="http://www.w3.org/2000/svg">
<path d="M15.2073 0.292969L13.793 1.70718L16.0859 4.00008H11.0002V6.00007H16.0859L13.793 8.29296L15.2073 9.70716L19.9144 5.00007L15.2073 0.292969ZM7.50015 5.00007C7.50015 3.61936 6.38086 2.50007 5.00015 2.50007C3.61944 2.50007 2.50015 3.61936 2.50015 5.00007C2.50015 6.38079 3.61944 7.50007 5.00015 7.50007C6.38086 7.50007 7.50015 6.38079 7.50015 5.00007ZM9.5002 5.00007C9.5002 7.48536 7.48543 9.50006 5.00015 9.50006C2.51487 9.50006 0.500148 7.48536 0.500148 5.00007C0.500148 2.51479 2.51487 0.500069 5.00015 0.500069C7.48543 0.500069 9.5002 2.51479 9.5002 5.00007ZM3.91436 16.0001L6.20726 18.293L4.79304 19.7072L0.0859375 15.0001L4.79304 10.293L6.20726 11.7072L3.91436 14.0001H9.0002V16.0001H3.91436ZM13.0002 17.0001H17.0002V13.0001H13.0002V17.0001ZM11.0002 12.0001C11.0002 11.4478 11.4479 11.0001 12.0002 11.0001H18.0002C18.5524 11.0001 19.0002 11.4478 19.0002 12.0001V18.0001C19.0002 18.5524 18.5524 19.0001 18.0002 19.0001H12.0002C11.4479 19.0001 11.0002 18.5524 11.0002 18.0001V12.0001Z" fill="#F7EDE2"/>
</svg>
