<svg width="41" height="40" viewBox="0 0 41 40" fill="none" xmlns="http://www.w3.org/2000/svg">
<path d="M27 21.6663L38.6069 28.4367L33.6522 29.8545L37.1934 35.9885L34.3067 37.6552L30.7654 31.5212L27.0599 35.1033L27 21.6663ZM23.6667 9.99967H27V13.333H35.3334C36.2539 13.333 37 14.0792 37 14.9997V21.6663H33.6667V16.6663H17V33.333H23.6667V36.6663H15.3334C14.4129 36.6663 13.6667 35.9202 13.6667 34.9997V26.6663H10.3334V23.333H13.6667V14.9997C13.6667 14.0792 14.4129 13.333 15.3334 13.333H23.6667V9.99967ZM7.00002 23.333V26.6663H3.66669V23.333H7.00002ZM7.00002 16.6663V19.9997H3.66669V16.6663H7.00002ZM7.00002 9.99967V13.333H3.66669V9.99967H7.00002ZM7.00002 3.33301V6.66634H3.66669V3.33301H7.00002ZM13.6667 3.33301V6.66634H10.3334V3.33301H13.6667ZM20.3334 3.33301V6.66634H17V3.33301H20.3334ZM27 3.33301V6.66634H23.6667V3.33301H27Z" fill="#D57A66"/>
</svg>
